<svg xmlns="http://www.w3.org/2000/svg" xmlns:xlink="http://www.w3.org/1999/xlink" viewBox="0 0 50 50"><path d="M25 2C12.308594 2 2 12.308594 2 25C2 37.691406 12.308594 48 25 48C37.691406 48 48 37.691406 48 25C48 12.308594 37.691406 2 25 2 Z M 25 4C36.609375 4 46 13.390625 46 25C46 36.609375 36.609375 46 25 46C13.390625 46 4 36.609375 4 25C4 13.390625 13.390625 4 25 4 Z M 14.8125 18C14.261719 18.050781 13.855469 18.542969 13.90625 19.09375C13.957031 19.644531 14.449219 20.050781 15 20L35 20C35.359375 20.003906 35.695313 19.816406 35.878906 19.503906C36.058594 19.191406 36.058594 18.808594 35.878906 18.496094C35.695313 18.183594 35.359375 17.996094 35 18L15 18C14.96875 18 14.9375 18 14.90625 18C14.875 18 14.84375 18 14.8125 18 Z M 14.8125 24C14.261719 24.050781 13.855469 24.542969 13.90625 25.09375C13.957031 25.644531 14.449219 26.050781 15 26L35 26C35.359375 26.003906 35.695313 25.816406 35.878906 25.503906C36.058594 25.191406 36.058594 24.808594 35.878906 24.496094C35.695313 24.183594 35.359375 23.996094 35 24L15 24C14.96875 24 14.9375 24 14.90625 24C14.875 24 14.84375 24 14.8125 24 Z M 14.8125 30C14.261719 30.050781 13.855469 30.542969 13.90625 31.09375C13.957031 31.644531 14.449219 32.050781 15 32L35 32C35.359375 32.003906 35.695313 31.816406 35.878906 31.503906C36.058594 31.191406 36.058594 30.808594 35.878906 30.496094C35.695313 30.183594 35.359375 29.996094 35 30L15 30C14.96875 30 14.9375 30 14.90625 30C14.875 30 14.84375 30 14.8125 30Z"/></svg>